<svg width="16" height="16" viewBox="0 0 16 16" fill="none" xmlns="http://www.w3.org/2000/svg">
<path d="M3.33333 14.6667C2.96667 14.6667 2.65278 14.5361 2.39167 14.275C2.13056 14.0139 2 13.7 2 13.3333V4.00001C2 3.63334 2.13056 3.31945 2.39167 3.05834C2.65278 2.79723 2.96667 2.66668 3.33333 2.66668H4V1.33334H5.33333V2.66668H10.6667V1.33334H12V2.66668H12.6667C13.0333 2.66668 13.3472 2.79723 13.6083 3.05834C13.8694 3.31945 14 3.63334 14 4.00001V13.3333C14 13.7 13.8694 14.0139 13.6083 14.275C13.3472 14.5361 13.0333 14.6667 12.6667 14.6667H3.33333ZM3.33333 13.3333H12.6667V6.66668H3.33333V13.3333ZM3.33333 5.33334H12.6667V4.00001H3.33333V5.33334Z" fill="#767676"/>
</svg>
