<svg width="12" height="12" viewBox="0 0 12 12" fill="none" xmlns="http://www.w3.org/2000/svg">
<path d="M0.933333 12L0 11.0667L6.83333 4.23333C6.63333 3.76667 6.60556 3.23889 6.75 2.65C6.89444 2.06111 7.21111 1.53333 7.7 1.06667C8.28889 0.477778 8.94444 0.133333 9.66667 0.0333333C10.3889 -0.0666667 10.9778 0.111111 11.4333 0.566667C11.8889 1.02222 12.0667 1.61111 11.9667 2.33333C11.8667 3.05556 11.5222 3.71111 10.9333 4.3C10.4667 4.78889 9.93889 5.10556 9.35 5.25C8.76111 5.39444 8.23333 5.36667 7.76667 5.16667L6.93333 6L12 11.0667L11.0667 12L6 6.96667L0.933333 12ZM2.9 6.3L0.9 4.3C0.3 3.7 0 2.98333 0 2.15C0 1.31667 0.3 0.6 0.9 0L5.03333 4.16667L2.9 6.3Z" fill="#5F69C7"/>
</svg>
