<svg width="11" height="10" viewBox="0 0 11 10" fill="none" xmlns="http://www.w3.org/2000/svg">
<path d="M4.77405 0.28406C4.96099 -0.0947067 5.5011 -0.0947074 5.68803 0.284059L6.90972 2.75948C6.98395 2.90989 7.12744 3.01414 7.29343 3.03826L10.0252 3.43521C10.4432 3.49595 10.6101 4.00962 10.3077 4.30445L8.33091 6.2313C8.2108 6.34837 8.15599 6.51706 8.18435 6.68237L8.65099 9.40312C8.72239 9.81943 8.28544 10.1369 7.91157 9.94034L5.46819 8.65578C5.31972 8.57773 5.14236 8.57773 4.9939 8.65578L2.55051 9.94034C2.17665 10.1369 1.73969 9.81943 1.81109 9.40312L2.27774 6.68237C2.30609 6.51706 2.25128 6.34837 2.13118 6.2313L0.154434 4.30445C-0.148029 4.00962 0.0188736 3.49595 0.436867 3.43521L3.16866 3.03826C3.33464 3.01414 3.47813 2.90989 3.55236 2.75948L4.77405 0.28406Z" fill="#FFECE2"/>
</svg>
