<svg width="20" height="20" viewBox="0 0 20 20" fill="none" xmlns="http://www.w3.org/2000/svg">
<path d="M10 1.66667C5.40001 1.66667 1.66667 5.40001 1.66667 10C1.66667 14.6 5.40001 18.3333 10 18.3333C14.6 18.3333 18.3333 14.6 18.3333 10C18.3333 5.40001 14.6 1.66667 10 1.66667ZM10 16.6667C6.32501 16.6667 3.33334 13.675 3.33334 10C3.33334 6.32501 6.32501 3.33334 10 3.33334C13.675 3.33334 16.6667 6.32501 16.6667 10C16.6667 13.675 13.675 16.6667 10 16.6667ZM13.825 6.31667L8.33334 11.8083L6.175 9.65834L5.00001 10.8333L8.33334 14.1667L15 7.50001L13.825 6.31667Z" fill="#FFECE2"/>
</svg>
