<svg width="11" height="10" viewBox="0 0 11 10" fill="none" xmlns="http://www.w3.org/2000/svg">
<path d="M4.77404 0.284074C4.96097 -0.0946909 5.50108 -0.0946915 5.68801 0.284074L6.9097 2.75949C6.98393 2.90989 7.12742 3.01415 7.2934 3.03826L10.0252 3.43522C10.4432 3.49595 10.6101 4.00963 10.3076 4.30445L8.33088 6.23129C8.21078 6.34837 8.15597 6.51705 8.18432 6.68237L8.65096 9.40311C8.72237 9.81941 8.28541 10.1369 7.91155 9.94033L5.46817 8.65577C5.31971 8.57772 5.14235 8.57772 4.99388 8.65577L2.55051 9.94033C2.17664 10.1369 1.73968 9.81941 1.81109 9.40311L2.27773 6.68237C2.30608 6.51705 2.25128 6.34837 2.13117 6.23129L0.154434 4.30445C-0.148028 4.00963 0.0188736 3.49595 0.436866 3.43522L3.16865 3.03826C3.33463 3.01415 3.47812 2.90989 3.55235 2.75949L4.77404 0.284074Z" fill="#FFECE2"/>
</svg>
