<svg width="15" height="15" viewBox="0 0 15 15" fill="none" xmlns="http://www.w3.org/2000/svg">
<path d="M1.36364 15C0.988636 15 0.667613 14.8665 0.400568 14.5994C0.133523 14.3324 0 14.0114 0 13.6364V1.36364C0 0.988636 0.133523 0.667613 0.400568 0.400568C0.667613 0.133523 0.988636 0 1.36364 0H13.6364C14.0114 0 14.3324 0.133523 14.5994 0.400568C14.8665 0.667613 15 0.988636 15 1.36364V13.6364C15 14.0114 14.8665 14.3324 14.5994 14.5994C14.3324 14.8665 14.0114 15 13.6364 15H1.36364ZM4.09091 14.3182L5.04545 13.3295L3.98864 12.2727H12.2727V8.18182H10.9091V10.9091H3.98864L5.04545 9.85227L4.09091 8.86363L1.36364 11.5909L4.09091 14.3182ZM2.72727 6.81818H4.09091V4.09091H11.0114L9.95454 5.14773L10.9091 6.13636L13.6364 3.40909L10.9091 0.681818L9.95454 1.67045L11.0114 2.72727H2.72727V6.81818Z" fill="#767676"/>
</svg>
